<mxfile host="app.diagrams.net" agent="Mozilla/5.0 (Windows NT 10.0; Win64; x64) AppleWebKit/537.36 (KHTML, like Gecko) Chrome/128.0.0.0 Safari/537.36" version="24.7.10">
  <diagram name="Página-1" id="D1yeE_vw0aPZ_IrkpM-p">
    <mxGraphModel grid="1" page="1" gridSize="10" guides="1" tooltips="1" connect="1" arrows="1" fold="1" pageScale="1" pageWidth="827" pageHeight="1169" math="0" shadow="0">
      <root>
        <mxCell id="0" />
        <mxCell id="1" parent="0" />
        <mxCell id="xq4rMB6KIAmGTRlJgKht-1" value="USUARIO" style="shape=umlActor;verticalLabelPosition=bottom;verticalAlign=top;html=1;outlineConnect=0;" vertex="1" parent="1">
          <mxGeometry x="80" y="200" width="50" height="80" as="geometry" />
        </mxCell>
        <mxCell id="xq4rMB6KIAmGTRlJgKht-2" value="Equipo creado" style="ellipse;whiteSpace=wrap;html=1;" vertex="1" parent="1">
          <mxGeometry x="180" y="200" width="120" height="80" as="geometry" />
        </mxCell>
        <mxCell id="xq4rMB6KIAmGTRlJgKht-4" value="" style="endArrow=classic;html=1;rounded=0;exitX=0.5;exitY=0.5;exitDx=0;exitDy=0;exitPerimeter=0;entryX=0;entryY=0.5;entryDx=0;entryDy=0;" edge="1" parent="1" source="xq4rMB6KIAmGTRlJgKht-1" target="xq4rMB6KIAmGTRlJgKht-2">
          <mxGeometry width="50" height="50" relative="1" as="geometry">
            <mxPoint x="140" y="280" as="sourcePoint" />
            <mxPoint x="190" y="230" as="targetPoint" />
          </mxGeometry>
        </mxCell>
        <mxCell id="xq4rMB6KIAmGTRlJgKht-5" value="Eliminar equipo creado" style="ellipse;whiteSpace=wrap;html=1;" vertex="1" parent="1">
          <mxGeometry x="380" y="135" width="120" height="80" as="geometry" />
        </mxCell>
        <mxCell id="xq4rMB6KIAmGTRlJgKht-6" value="&amp;lt;&amp;lt;Include&amp;gt;&amp;gt;" style="text;html=1;align=center;verticalAlign=middle;whiteSpace=wrap;rounded=0;" vertex="1" parent="1">
          <mxGeometry x="310" y="170" width="60" height="30" as="geometry" />
        </mxCell>
        <mxCell id="xq4rMB6KIAmGTRlJgKht-7" value="" style="html=1;verticalAlign=bottom;endArrow=open;dashed=1;endSize=8;curved=0;rounded=0;exitX=0.057;exitY=0.733;exitDx=0;exitDy=0;exitPerimeter=0;" edge="1" parent="1" source="xq4rMB6KIAmGTRlJgKht-5" target="xq4rMB6KIAmGTRlJgKht-2">
          <mxGeometry relative="1" as="geometry">
            <mxPoint x="430" y="239.5" as="sourcePoint" />
            <mxPoint x="350" y="239.5" as="targetPoint" />
          </mxGeometry>
        </mxCell>
        <mxCell id="xq4rMB6KIAmGTRlJgKht-8" value="" style="html=1;verticalAlign=bottom;endArrow=open;dashed=1;endSize=8;curved=0;rounded=0;exitX=0.5;exitY=1;exitDx=0;exitDy=0;" edge="1" parent="1" source="xq4rMB6KIAmGTRlJgKht-5">
          <mxGeometry relative="1" as="geometry">
            <mxPoint x="460" y="225.5" as="sourcePoint" />
            <mxPoint x="440" y="280" as="targetPoint" />
          </mxGeometry>
        </mxCell>
        <mxCell id="xq4rMB6KIAmGTRlJgKht-9" value="Verificar si el usuario es el dueño" style="ellipse;whiteSpace=wrap;html=1;" vertex="1" parent="1">
          <mxGeometry x="380" y="280" width="120" height="80" as="geometry" />
        </mxCell>
      </root>
    </mxGraphModel>
  </diagram>
</mxfile>
